PathFileType	4	(X/Y/Z)	/Users/visionmauri/Downloads/pro-gait-dataset/4_0_1_f_1_Sports2D/4_0_1_f_1_Sports2D_m_person00.trc
DataRate	CameraRate	NumFrames	NumMarkers	Units	OrigDataRate	OrigDataStartFrame	OrigNumFrames
30.0	30.0	7	22	m	30.0	163	654
Frame#	Time	Hip			RHip			RKnee			RAnkle			RBigToe			RSmallToe			RHeel			LHip			LKnee			LAnkle			LBigToe			LSmallToe			LHeel			Neck			Head			Nose			RShoulder			RElbow			RWrist			LShoulder			LElbow			LWrist			
		X1	Y1	Z1	X2	Y2	Z2	X3	Y3	Z3	X4	Y4	Z4	X5	Y5	Z5	X6	Y6	Z6	X7	Y7	Z7	X8	Y8	Z8	X9	Y9	Z9	X10	Y10	Z10	X11	Y11	Z11	X12	Y12	Z12	X13	Y13	Z13	X14	Y14	Z14	X15	Y15	Z15	X16	Y16	Z16	X17	Y17	Z17	X18	Y18	Z18	X19	Y19	Z19	X20	Y20	Z20	X21	Y21	Z21	X22	Y22	Z22
163	5.441653905053599	1.2913862533929392	0.37084770408029855	0.0301	1.3236497901851205	0.4018378292604467	0.0301	1.4424394226179997	0.28181313335403235	0.129	1.5491424121372794	0.14987960282171958	0.023	1.5929017303940163	0.12110543955067742	0.2179	1.605187714263416	0.12968931811196777	0.1804	1.565371371572508	0.12258758153530852	-0.0119	1.258120253163422	0.34433201528263596	0.0301	1.366134977716534	0.20903710986754678	0.129	1.469977549749431	0.0874205394326181	0.023	1.4570385783772937	0.0628340333759523	0.2179	1.454253207729984	0.052662444731249335	0.1804	1.4923662378244886	0.06831695976434339	-0.0119	1.1312180928734754	0.5338083224086542	0.0008	1.0595240878288896	0.5985480087118993	0.0655	1.0959424216343077	0.5483044612377982	0.1076	1.200829655739928	0.5632166193559307	-0.01275	1.3160318827703024	0.5313520417759157	0.0702	1.3943030103582004	0.4819121811138283	0.1076	1.1012102945762263	0.46610714945753945	-0.01275	1.1405965992713538	0.3509385087614704	0.0702	1.1950955183990022	0.24965648063756232	0.1076
164	5.475038284839203	1.2884769740425286	0.37057249509502654	0.0301	1.320479663719946	0.40283178524611607	0.0301	1.4413976444381416	0.2867962719259808	0.129	1.5429024754236786	0.1577667301739707	0.023	1.5849778255909892	0.12106564965533231	0.2179	1.5986900080387552	0.13223616591810997	0.1804	1.5594210573043408	0.12937244137488016	-0.0119	1.2557206487636932	0.3436011590944692	0.0301	1.3645839386046856	0.20918533734983133	0.129	1.4696754755441048	0.08723941331901645	0.023	1.4554883497302487	0.06154487989758098	0.2179	1.4545156154858176	0.05186093782242448	0.1804	1.493384612020825	0.0672863646591122	-0.0119	1.1264743107941624	0.5318766257091831	0.0008	1.054445665114869	0.5958649855536446	0.0655	1.091573022990637	0.5480088120064901	0.1076	1.1955829114425058	0.562656105741112	-0.01275	1.3097016689234053	0.5328461963785663	0.0702	1.3901712179843115	0.47985212076686734	0.1076	1.0964015961251006	0.4637603385304131	-0.01275	1.1404208075956506	0.3515193573343604	0.0702	1.1961078500849702	0.2522704573679073	0.1076
165	5.508422664624808	1.2862841280128599	0.3702807733978488	0.0301	1.3181430069104338	0.40299452277494924	0.0301	1.4401141058352789	0.2907770290003435	0.129	1.536366264225202	0.1634830993917237	0.023	1.5767369929410038	0.12214788786652277	0.2179	1.5920307386018693	0.13533311112376245	0.1804	1.5524100008260748	0.13386883327033972	-0.0119	1.2540974156496143	0.34290173749486597	0.0301	1.3637270108312372	0.20952018581632958	0.129	1.4695795846586275	0.08738350996711446	0.023	1.4544901783883217	0.06133814699352255	0.2179	1.4543187756949225	0.05155627957419268	0.1804	1.4936731586331995	0.06697510069200592	-0.0119	1.1221079863766787	0.5303873940311956	0.0008	1.0506206611082767	0.5955464837340338	0.0655	1.0881003379323404	0.5488401793429866	0.1076	1.1901386909504705	0.5617882821309539	-0.01275	1.3049262334601492	0.5330496028667328	0.0702	1.3871866120823515	0.47737673285598564	0.1076	1.0911987678251966	0.46261291509211067	-0.01275	1.1390639983035418	0.35186791349216495	0.0702	1.1975050010877502	0.25658214983813704	0.1076
166	5.5418070444104135	1.2841882037240038	0.37129324999204083	0.0301	1.3154529526412853	0.403544424281522	0.0301	1.43810730166952	0.2933121438405788	0.129	1.5310890268027328	0.16652156157822037	0.023	1.5703658835919727	0.12290644064388985	0.2179	1.5871449150576888	0.13778140475371703	0.1804	1.5457970340140992	0.13652098945563645	-0.0119	1.2524834409007302	0.34375293970734666	0.0301	1.363269673825974	0.21040777544206576	0.129	1.469495896116325	0.08743945713413946	0.023	1.454273548340537	0.0617695297790622	0.2179	1.454006503754306	0.05165285283344364	0.1804	1.4934509867598948	0.06743821035376678	-0.0119	1.118429737057772	0.5297377674308767	0.0008	1.0482337845607206	0.5961460892418275	0.0655	1.0862037189604956	0.5498235887264982	0.1076	1.1849480167035498	0.5611425592413866	-0.01275	1.3009692227050622	0.5314658514187893	0.0702	1.3852563982313064	0.4751441128655372	0.1076	1.0870579604728032	0.4631159819098851	-0.01275	1.1375655154725623	0.3516833982298156	0.0702	1.1999971997180963	0.2619519986169651	0.1076
167	5.575191424196018	1.2817327404800303	0.37325220785720786	0.0301	1.3120062994446522	0.40484237397406164	0.0301	1.4355214490705146	0.2949387749188211	0.129	1.5274476652755626	0.1686138762973282	0.023	1.5647471900604384	0.12256846807880882	0.2179	1.583026823892987	0.13912229334807244	0.1804	1.5408952850339843	0.13904108906301665	-0.0119	1.2501681549558405	0.3461109360838558	0.0301	1.3626374404042134	0.21187737272305057	0.129	1.469373419300527	0.08716939602285281	0.023	1.454247463475876	0.06205465138124157	0.2179	1.453817273246797	0.05193362694492957	0.1804	1.4932800495992817	0.06812041611046292	-0.0119	1.1154749073479127	0.5299518689344642	0.0008	1.0465069305025463	0.5966254192410476	0.0655	1.0853359560986444	0.550830874549282	0.1076	1.1808254985663234	0.5612173916209948	-0.01275	1.2968761511470113	0.5285701820077338	0.0702	1.3839359190972391	0.47321335374889784	0.1076	1.0841072130156233	0.4649074105357864	-0.01275	1.1364438224123001	0.3520906115136106	0.0702	1.2024891685920112	0.2683273537589466	0.1076
168	5.608575803981623	1.2791662217682664	0.3750843240662472	0.0301	1.3087440050946386	0.40599201540996405	0.0301	1.4328530878824157	0.2957610024679681	0.129	1.5253165875635661	0.1701844629573999	0.023	1.5577353998958743	0.12248236342736173	0.2179	1.5772555008456945	0.14033829606170126	0.1804	1.5383915011369815	0.14131232580025938	-0.0119	1.2479400907485942	0.34834749966844614	0.0301	1.3612996224218048	0.21377044911185017	0.129	1.4690153277910039	0.08725142439129166	0.023	1.4543618983908357	0.062176131592041585	0.2179	1.4537780113603234	0.05205010141865829	0.1804	1.4927012714843382	0.06876214352950596	-0.0119	1.113635471630575	0.5305934987196593	0.0008	1.0446883136176264	0.5970819341010326	0.0655	1.08423588503496	0.5512688649132749	0.1076	1.1786872303663065	0.5615938172787895	-0.01275	1.2928072950603706	0.5253032175209873	0.0702	1.3833212183543242	0.4711085327216445	0.1076	1.0817172116738591	0.46701953777516386	-0.01275	1.1352487581121145	0.35412614550740223	0.0702	1.2034661068751638	0.275668829808696	0.1076
169	5.641960183767228	1.2769003354426225	0.37651484796507184	0.0301	1.3064802107175635	0.40644258248978193	0.0301	1.4302269038417759	0.2956864478019897	0.129	1.5244053426983744	0.1702450144667529	0.023	1.5492343031833338	0.12406102112491944	0.2179	1.5694700156405073	0.14234425936579823	0.1804	1.5378404853509695	0.14212338105793496	-0.0119	1.2467605624782048	0.3495559318028445	0.0301	1.359401353601598	0.21577696929871162	0.129	1.468388859103353	0.08820861359217154	0.023	1.4549081531401542	0.06259346164507722	0.2179	1.4539854857504735	0.05179859574787799	0.1804	1.4912129545549466	0.06927987380981154	-0.0119	1.1128665225056458	0.5312216751688765	0.0008	1.0429559602266993	0.5974877936754361	0.0655	1.0824293820234596	0.5504380189407796	0.1076	1.1781410319635084	0.5616544137199849	-0.01275	1.2895410588083063	0.5226850052812432	0.0702	1.3833226121195197	0.46854202241342485	0.1076	1.0798455340559163	0.4688729546070737	-0.01275	1.133598111960308	0.3574783586771248	0.0702	1.2028974418698974	0.2839250107512746	0.1076
